<mxfile host="app.diagrams.net" modified="2023-10-26T19:57:24.438Z" agent="Mozilla/5.0 (Windows NT 10.0; Win64; x64) AppleWebKit/537.36 (KHTML, like Gecko) Chrome/118.0.0.0 Safari/537.36 Edg/118.0.2088.61" etag="udZ0MJ5Qaes41k8fYXPh" version="22.0.8" type="device">
  <diagram id="VudLKQoHHqvFoI2rnZX1" name="Page-1">
    <mxGraphModel dx="956" dy="518" grid="1" gridSize="10" guides="1" tooltips="1" connect="1" arrows="1" fold="1" page="1" pageScale="1" pageWidth="827" pageHeight="1169" math="0" shadow="0">
      <root>
        <mxCell id="0" />
        <mxCell id="1" parent="0" />
        <mxCell id="6_qPxMwIvEwHCs3QV3vg-1" value=":Object" style="shape=umlLifeline;perimeter=lifelinePerimeter;whiteSpace=wrap;html=1;container=0;dropTarget=0;collapsible=0;recursiveResize=0;outlineConnect=0;portConstraint=eastwest;newEdgeStyle={&quot;edgeStyle&quot;:&quot;elbowEdgeStyle&quot;,&quot;elbow&quot;:&quot;vertical&quot;,&quot;curved&quot;:0,&quot;rounded&quot;:0};" vertex="1" parent="1">
          <mxGeometry x="430" y="100" width="100" height="300" as="geometry" />
        </mxCell>
        <mxCell id="6_qPxMwIvEwHCs3QV3vg-2" value="" style="html=1;points=[];perimeter=orthogonalPerimeter;outlineConnect=0;targetShapes=umlLifeline;portConstraint=eastwest;newEdgeStyle={&quot;edgeStyle&quot;:&quot;elbowEdgeStyle&quot;,&quot;elbow&quot;:&quot;vertical&quot;,&quot;curved&quot;:0,&quot;rounded&quot;:0};" vertex="1" parent="6_qPxMwIvEwHCs3QV3vg-1">
          <mxGeometry x="45" y="70" width="10" height="190" as="geometry" />
        </mxCell>
        <mxCell id="6_qPxMwIvEwHCs3QV3vg-3" value="dispatch" style="html=1;verticalAlign=bottom;startArrow=oval;endArrow=block;startSize=8;edgeStyle=elbowEdgeStyle;elbow=vertical;curved=0;rounded=0;" edge="1" parent="6_qPxMwIvEwHCs3QV3vg-1" target="6_qPxMwIvEwHCs3QV3vg-2">
          <mxGeometry relative="1" as="geometry">
            <mxPoint x="-15" y="70" as="sourcePoint" />
          </mxGeometry>
        </mxCell>
        <mxCell id="6_qPxMwIvEwHCs3QV3vg-4" value="" style="html=1;points=[];perimeter=orthogonalPerimeter;outlineConnect=0;targetShapes=umlLifeline;portConstraint=eastwest;newEdgeStyle={&quot;edgeStyle&quot;:&quot;elbowEdgeStyle&quot;,&quot;elbow&quot;:&quot;vertical&quot;,&quot;curved&quot;:0,&quot;rounded&quot;:0};" vertex="1" parent="6_qPxMwIvEwHCs3QV3vg-1">
          <mxGeometry x="50" y="120" width="10" height="80" as="geometry" />
        </mxCell>
        <mxCell id="6_qPxMwIvEwHCs3QV3vg-5" value=":Object" style="shape=umlLifeline;perimeter=lifelinePerimeter;whiteSpace=wrap;html=1;container=0;dropTarget=0;collapsible=0;recursiveResize=0;outlineConnect=0;portConstraint=eastwest;newEdgeStyle={&quot;edgeStyle&quot;:&quot;elbowEdgeStyle&quot;,&quot;elbow&quot;:&quot;vertical&quot;,&quot;curved&quot;:0,&quot;rounded&quot;:0};" vertex="1" parent="1">
          <mxGeometry x="610" y="100" width="100" height="300" as="geometry" />
        </mxCell>
        <mxCell id="6_qPxMwIvEwHCs3QV3vg-6" value="" style="html=1;points=[];perimeter=orthogonalPerimeter;outlineConnect=0;targetShapes=umlLifeline;portConstraint=eastwest;newEdgeStyle={&quot;edgeStyle&quot;:&quot;elbowEdgeStyle&quot;,&quot;elbow&quot;:&quot;vertical&quot;,&quot;curved&quot;:0,&quot;rounded&quot;:0};" vertex="1" parent="6_qPxMwIvEwHCs3QV3vg-5">
          <mxGeometry x="45" y="80" width="10" height="170" as="geometry" />
        </mxCell>
        <mxCell id="6_qPxMwIvEwHCs3QV3vg-7" value="dispatch" style="html=1;verticalAlign=bottom;endArrow=block;edgeStyle=elbowEdgeStyle;elbow=vertical;curved=0;rounded=0;" edge="1" parent="1" source="6_qPxMwIvEwHCs3QV3vg-2" target="6_qPxMwIvEwHCs3QV3vg-6">
          <mxGeometry relative="1" as="geometry">
            <mxPoint x="585" y="190" as="sourcePoint" />
            <Array as="points">
              <mxPoint x="570" y="180" />
            </Array>
          </mxGeometry>
        </mxCell>
        <mxCell id="6_qPxMwIvEwHCs3QV3vg-8" value="return" style="html=1;verticalAlign=bottom;endArrow=open;dashed=1;endSize=8;edgeStyle=elbowEdgeStyle;elbow=vertical;curved=0;rounded=0;" edge="1" parent="1" source="6_qPxMwIvEwHCs3QV3vg-6" target="6_qPxMwIvEwHCs3QV3vg-2">
          <mxGeometry relative="1" as="geometry">
            <mxPoint x="585" y="265" as="targetPoint" />
            <Array as="points">
              <mxPoint x="580" y="340" />
            </Array>
          </mxGeometry>
        </mxCell>
        <mxCell id="6_qPxMwIvEwHCs3QV3vg-9" value="callback" style="html=1;verticalAlign=bottom;endArrow=block;edgeStyle=elbowEdgeStyle;elbow=vertical;curved=0;rounded=0;" edge="1" parent="1" source="6_qPxMwIvEwHCs3QV3vg-6" target="6_qPxMwIvEwHCs3QV3vg-4">
          <mxGeometry relative="1" as="geometry">
            <mxPoint x="565" y="220" as="sourcePoint" />
            <Array as="points">
              <mxPoint x="580" y="220" />
            </Array>
          </mxGeometry>
        </mxCell>
        <mxCell id="6_qPxMwIvEwHCs3QV3vg-10" value="return" style="html=1;verticalAlign=bottom;endArrow=open;dashed=1;endSize=8;edgeStyle=elbowEdgeStyle;elbow=vertical;curved=0;rounded=0;" edge="1" parent="1" source="6_qPxMwIvEwHCs3QV3vg-4" target="6_qPxMwIvEwHCs3QV3vg-6">
          <mxGeometry relative="1" as="geometry">
            <mxPoint x="565" y="295" as="targetPoint" />
            <Array as="points">
              <mxPoint x="570" y="290" />
            </Array>
          </mxGeometry>
        </mxCell>
        <mxCell id="6_qPxMwIvEwHCs3QV3vg-11" value=":Object" style="shape=umlLifeline;perimeter=lifelinePerimeter;whiteSpace=wrap;html=1;container=1;collapsible=0;recursiveResize=0;outlineConnect=0;rounded=1;shadow=0;comic=0;labelBackgroundColor=none;strokeWidth=1;fontFamily=Verdana;fontSize=12;align=center;" vertex="1" parent="1">
          <mxGeometry x="550" y="470" width="100" height="580" as="geometry" />
        </mxCell>
        <mxCell id="6_qPxMwIvEwHCs3QV3vg-12" value="" style="html=1;points=[];perimeter=orthogonalPerimeter;rounded=0;shadow=0;comic=0;labelBackgroundColor=none;strokeWidth=1;fontFamily=Verdana;fontSize=12;align=center;" vertex="1" parent="6_qPxMwIvEwHCs3QV3vg-11">
          <mxGeometry x="45" y="100" width="10" height="230" as="geometry" />
        </mxCell>
        <mxCell id="6_qPxMwIvEwHCs3QV3vg-13" value=":Object" style="shape=umlLifeline;perimeter=lifelinePerimeter;whiteSpace=wrap;html=1;container=1;collapsible=0;recursiveResize=0;outlineConnect=0;rounded=1;shadow=0;comic=0;labelBackgroundColor=none;strokeWidth=1;fontFamily=Verdana;fontSize=12;align=center;" vertex="1" parent="1">
          <mxGeometry x="710" y="470" width="100" height="580" as="geometry" />
        </mxCell>
        <mxCell id="6_qPxMwIvEwHCs3QV3vg-14" value="" style="html=1;points=[];perimeter=orthogonalPerimeter;rounded=0;shadow=0;comic=0;labelBackgroundColor=none;strokeWidth=1;fontFamily=Verdana;fontSize=12;align=center;" vertex="1" parent="6_qPxMwIvEwHCs3QV3vg-13">
          <mxGeometry x="45" y="120" width="10" height="200" as="geometry" />
        </mxCell>
        <mxCell id="6_qPxMwIvEwHCs3QV3vg-15" value=":Object" style="shape=umlLifeline;perimeter=lifelinePerimeter;whiteSpace=wrap;html=1;container=1;collapsible=0;recursiveResize=0;outlineConnect=0;rounded=1;shadow=0;comic=0;labelBackgroundColor=none;strokeWidth=1;fontFamily=Verdana;fontSize=12;align=center;" vertex="1" parent="1">
          <mxGeometry x="850" y="470" width="100" height="580" as="geometry" />
        </mxCell>
        <mxCell id="6_qPxMwIvEwHCs3QV3vg-16" value=":Object" style="shape=umlLifeline;perimeter=lifelinePerimeter;whiteSpace=wrap;html=1;container=1;collapsible=0;recursiveResize=0;outlineConnect=0;rounded=1;shadow=0;comic=0;labelBackgroundColor=none;strokeWidth=1;fontFamily=Verdana;fontSize=12;align=center;" vertex="1" parent="1">
          <mxGeometry x="990" y="470" width="100" height="580" as="geometry" />
        </mxCell>
        <mxCell id="6_qPxMwIvEwHCs3QV3vg-17" value=":Object" style="shape=umlLifeline;perimeter=lifelinePerimeter;whiteSpace=wrap;html=1;container=1;collapsible=0;recursiveResize=0;outlineConnect=0;rounded=1;shadow=0;comic=0;labelBackgroundColor=none;strokeWidth=1;fontFamily=Verdana;fontSize=12;align=center;" vertex="1" parent="1">
          <mxGeometry x="1130" y="470" width="100" height="580" as="geometry" />
        </mxCell>
        <mxCell id="6_qPxMwIvEwHCs3QV3vg-18" value=":Object" style="shape=umlLifeline;perimeter=lifelinePerimeter;whiteSpace=wrap;html=1;container=1;collapsible=0;recursiveResize=0;outlineConnect=0;rounded=1;shadow=0;comic=0;labelBackgroundColor=none;strokeWidth=1;fontFamily=Verdana;fontSize=12;align=center;" vertex="1" parent="1">
          <mxGeometry x="1270" y="470" width="100" height="580" as="geometry" />
        </mxCell>
        <mxCell id="6_qPxMwIvEwHCs3QV3vg-19" value=":Object" style="shape=umlLifeline;perimeter=lifelinePerimeter;whiteSpace=wrap;html=1;container=1;collapsible=0;recursiveResize=0;outlineConnect=0;rounded=1;shadow=0;comic=0;labelBackgroundColor=none;strokeWidth=1;fontFamily=Verdana;fontSize=12;align=center;" vertex="1" parent="1">
          <mxGeometry x="410" y="470" width="100" height="580" as="geometry" />
        </mxCell>
        <mxCell id="6_qPxMwIvEwHCs3QV3vg-20" value="" style="html=1;points=[];perimeter=orthogonalPerimeter;rounded=0;shadow=0;comic=0;labelBackgroundColor=none;strokeWidth=1;fontFamily=Verdana;fontSize=12;align=center;" vertex="1" parent="6_qPxMwIvEwHCs3QV3vg-19">
          <mxGeometry x="45" y="100" width="10" height="440" as="geometry" />
        </mxCell>
        <mxCell id="6_qPxMwIvEwHCs3QV3vg-21" value="" style="html=1;points=[];perimeter=orthogonalPerimeter;rounded=0;shadow=0;comic=0;labelBackgroundColor=none;strokeWidth=1;fontFamily=Verdana;fontSize=12;align=center;" vertex="1" parent="1">
          <mxGeometry x="895" y="610" width="10" height="180" as="geometry" />
        </mxCell>
        <mxCell id="6_qPxMwIvEwHCs3QV3vg-22" value="dispatch" style="html=1;verticalAlign=bottom;endArrow=block;labelBackgroundColor=none;fontFamily=Verdana;fontSize=12;edgeStyle=elbowEdgeStyle;elbow=vertical;rounded=0;" edge="1" parent="1" source="6_qPxMwIvEwHCs3QV3vg-14" target="6_qPxMwIvEwHCs3QV3vg-21">
          <mxGeometry relative="1" as="geometry">
            <mxPoint x="820" y="610" as="sourcePoint" />
            <Array as="points">
              <mxPoint x="770" y="610" />
            </Array>
          </mxGeometry>
        </mxCell>
        <mxCell id="6_qPxMwIvEwHCs3QV3vg-23" value="" style="html=1;points=[];perimeter=orthogonalPerimeter;rounded=0;shadow=0;comic=0;labelBackgroundColor=none;strokeWidth=1;fontFamily=Verdana;fontSize=12;align=center;" vertex="1" parent="1">
          <mxGeometry x="1035" y="620" width="10" height="40" as="geometry" />
        </mxCell>
        <mxCell id="6_qPxMwIvEwHCs3QV3vg-24" value="dispatch" style="html=1;verticalAlign=bottom;endArrow=block;entryX=0;entryY=0;labelBackgroundColor=none;fontFamily=Verdana;fontSize=12;edgeStyle=elbowEdgeStyle;elbow=vertical;rounded=0;" edge="1" parent="1" source="6_qPxMwIvEwHCs3QV3vg-21" target="6_qPxMwIvEwHCs3QV3vg-23">
          <mxGeometry relative="1" as="geometry">
            <mxPoint x="960" y="620" as="sourcePoint" />
          </mxGeometry>
        </mxCell>
        <mxCell id="6_qPxMwIvEwHCs3QV3vg-25" value="return" style="html=1;verticalAlign=bottom;endArrow=open;dashed=1;endSize=8;labelBackgroundColor=none;fontFamily=Verdana;fontSize=12;edgeStyle=elbowEdgeStyle;elbow=vertical;rounded=0;" edge="1" parent="1" source="6_qPxMwIvEwHCs3QV3vg-23" target="6_qPxMwIvEwHCs3QV3vg-21">
          <mxGeometry relative="1" as="geometry">
            <mxPoint x="960" y="696" as="targetPoint" />
            <Array as="points">
              <mxPoint x="980" y="650" />
              <mxPoint x="1010" y="650" />
            </Array>
          </mxGeometry>
        </mxCell>
        <mxCell id="6_qPxMwIvEwHCs3QV3vg-26" value="" style="html=1;points=[];perimeter=orthogonalPerimeter;rounded=0;shadow=0;comic=0;labelBackgroundColor=none;strokeWidth=1;fontFamily=Verdana;fontSize=12;align=center;" vertex="1" parent="1">
          <mxGeometry x="895" y="830" width="10" height="140" as="geometry" />
        </mxCell>
        <mxCell id="6_qPxMwIvEwHCs3QV3vg-27" value="dispatch" style="html=1;verticalAlign=bottom;endArrow=block;entryX=0;entryY=0;labelBackgroundColor=none;fontFamily=Verdana;fontSize=12;rounded=0;" edge="1" parent="1" source="6_qPxMwIvEwHCs3QV3vg-20" target="6_qPxMwIvEwHCs3QV3vg-26">
          <mxGeometry relative="1" as="geometry">
            <mxPoint x="820" y="810" as="sourcePoint" />
          </mxGeometry>
        </mxCell>
        <mxCell id="6_qPxMwIvEwHCs3QV3vg-28" value="" style="html=1;points=[];perimeter=orthogonalPerimeter;rounded=0;shadow=0;comic=0;labelBackgroundColor=none;strokeColor=#000000;strokeWidth=1;fillColor=#FFFFFF;fontFamily=Verdana;fontSize=12;fontColor=#000000;align=center;" vertex="1" parent="1">
          <mxGeometry x="1315" y="850" width="10" height="30" as="geometry" />
        </mxCell>
        <mxCell id="6_qPxMwIvEwHCs3QV3vg-29" value="dispatch" style="html=1;verticalAlign=bottom;endArrow=block;entryX=0;entryY=0;labelBackgroundColor=none;fontFamily=Verdana;fontSize=12;rounded=0;" edge="1" parent="1" source="6_qPxMwIvEwHCs3QV3vg-26" target="6_qPxMwIvEwHCs3QV3vg-28">
          <mxGeometry relative="1" as="geometry">
            <mxPoint x="1240" y="730" as="sourcePoint" />
          </mxGeometry>
        </mxCell>
        <mxCell id="6_qPxMwIvEwHCs3QV3vg-30" value="return" style="html=1;verticalAlign=bottom;endArrow=open;dashed=1;endSize=8;exitX=0;exitY=0.95;labelBackgroundColor=none;fontFamily=Verdana;fontSize=12;rounded=0;" edge="1" parent="1" source="6_qPxMwIvEwHCs3QV3vg-28" target="6_qPxMwIvEwHCs3QV3vg-26">
          <mxGeometry relative="1" as="geometry">
            <mxPoint x="1240" y="806" as="targetPoint" />
          </mxGeometry>
        </mxCell>
        <mxCell id="6_qPxMwIvEwHCs3QV3vg-31" value="" style="html=1;points=[];perimeter=orthogonalPerimeter;rounded=0;shadow=0;comic=0;labelBackgroundColor=none;strokeWidth=1;fontFamily=Verdana;fontSize=12;align=center;" vertex="1" parent="1">
          <mxGeometry x="1180" y="940" width="10" height="60" as="geometry" />
        </mxCell>
        <mxCell id="6_qPxMwIvEwHCs3QV3vg-32" value="dispatch" style="html=1;verticalAlign=bottom;endArrow=block;entryX=0;entryY=0;labelBackgroundColor=none;fontFamily=Verdana;fontSize=12;edgeStyle=elbowEdgeStyle;elbow=vertical;rounded=0;" edge="1" parent="1" source="6_qPxMwIvEwHCs3QV3vg-39" target="6_qPxMwIvEwHCs3QV3vg-31">
          <mxGeometry relative="1" as="geometry">
            <mxPoint x="1110" y="940" as="sourcePoint" />
          </mxGeometry>
        </mxCell>
        <mxCell id="6_qPxMwIvEwHCs3QV3vg-33" value="return" style="html=1;verticalAlign=bottom;endArrow=open;dashed=1;endSize=8;labelBackgroundColor=none;fontFamily=Verdana;fontSize=12;edgeStyle=elbowEdgeStyle;elbow=vertical;rounded=0;" edge="1" parent="1" source="6_qPxMwIvEwHCs3QV3vg-31" target="6_qPxMwIvEwHCs3QV3vg-20">
          <mxGeometry relative="1" as="geometry">
            <mxPoint x="1110" y="1016" as="targetPoint" />
            <Array as="points">
              <mxPoint x="880" y="990" />
            </Array>
          </mxGeometry>
        </mxCell>
        <mxCell id="6_qPxMwIvEwHCs3QV3vg-34" value="dispatch" style="html=1;verticalAlign=bottom;endArrow=block;entryX=0;entryY=0;labelBackgroundColor=none;fontFamily=Verdana;fontSize=12;edgeStyle=elbowEdgeStyle;elbow=vertical;rounded=0;" edge="1" parent="1" source="6_qPxMwIvEwHCs3QV3vg-20" target="6_qPxMwIvEwHCs3QV3vg-12">
          <mxGeometry relative="1" as="geometry">
            <mxPoint x="530" y="580" as="sourcePoint" />
          </mxGeometry>
        </mxCell>
        <mxCell id="6_qPxMwIvEwHCs3QV3vg-35" value="dispatch" style="html=1;verticalAlign=bottom;endArrow=block;entryX=0;entryY=0;labelBackgroundColor=none;fontFamily=Verdana;fontSize=12;edgeStyle=elbowEdgeStyle;elbow=vertical;rounded=0;" edge="1" parent="1" source="6_qPxMwIvEwHCs3QV3vg-12" target="6_qPxMwIvEwHCs3QV3vg-14">
          <mxGeometry relative="1" as="geometry">
            <mxPoint x="680" y="590" as="sourcePoint" />
          </mxGeometry>
        </mxCell>
        <mxCell id="6_qPxMwIvEwHCs3QV3vg-36" value="" style="html=1;points=[];perimeter=orthogonalPerimeter;rounded=0;shadow=0;comic=0;labelBackgroundColor=none;strokeWidth=1;fontFamily=Verdana;fontSize=12;align=center;" vertex="1" parent="1">
          <mxGeometry x="900" y="690" width="10" height="70" as="geometry" />
        </mxCell>
        <mxCell id="6_qPxMwIvEwHCs3QV3vg-37" value="dispatch" style="html=1;verticalAlign=bottom;endArrow=block;labelBackgroundColor=none;fontFamily=Verdana;fontSize=12;elbow=vertical;edgeStyle=orthogonalEdgeStyle;curved=1;entryX=1;entryY=0.286;entryPerimeter=0;exitX=1.038;exitY=0.345;exitPerimeter=0;rounded=0;" edge="1" parent="1" source="6_qPxMwIvEwHCs3QV3vg-21" target="6_qPxMwIvEwHCs3QV3vg-36">
          <mxGeometry relative="1" as="geometry">
            <mxPoint x="775" y="620" as="sourcePoint" />
            <mxPoint x="905" y="620" as="targetPoint" />
            <Array as="points">
              <mxPoint x="960" y="672" />
              <mxPoint x="960" y="710" />
            </Array>
          </mxGeometry>
        </mxCell>
        <mxCell id="6_qPxMwIvEwHCs3QV3vg-38" value="dispatch" style="html=1;verticalAlign=bottom;endArrow=block;labelBackgroundColor=none;fontFamily=Verdana;fontSize=12;elbow=vertical;edgeStyle=orthogonalEdgeStyle;curved=1;exitX=1.066;exitY=0.713;exitPerimeter=0;rounded=0;" edge="1" parent="1" source="6_qPxMwIvEwHCs3QV3vg-36">
          <mxGeometry relative="1" as="geometry">
            <mxPoint x="920.3333333333333" y="740" as="sourcePoint" />
            <mxPoint x="905" y="779" as="targetPoint" />
            <Array as="points">
              <mxPoint x="960" y="740" />
              <mxPoint x="960" y="779" />
            </Array>
          </mxGeometry>
        </mxCell>
        <mxCell id="6_qPxMwIvEwHCs3QV3vg-39" value="" style="html=1;points=[];perimeter=orthogonalPerimeter;rounded=0;shadow=0;comic=0;labelBackgroundColor=none;strokeWidth=1;fontFamily=Verdana;fontSize=12;align=center;" vertex="1" parent="1">
          <mxGeometry x="900" y="910" width="10" height="40" as="geometry" />
        </mxCell>
        <mxCell id="6_qPxMwIvEwHCs3QV3vg-40" value="dispatch" style="html=1;verticalAlign=bottom;endArrow=block;labelBackgroundColor=none;fontFamily=Verdana;fontSize=12;elbow=vertical;edgeStyle=orthogonalEdgeStyle;curved=1;entryX=1;entryY=0.286;entryPerimeter=0;exitX=1.038;exitY=0.345;exitPerimeter=0;rounded=0;" edge="1" parent="1">
          <mxGeometry relative="1" as="geometry">
            <mxPoint x="905.3333333333335" y="891" as="sourcePoint" />
            <mxPoint x="910.3333333333335" y="929.3333333333334" as="targetPoint" />
            <Array as="points">
              <mxPoint x="960" y="891" />
              <mxPoint x="960" y="929" />
            </Array>
          </mxGeometry>
        </mxCell>
        <mxCell id="6_qPxMwIvEwHCs3QV3vg-41" value="Note" style="shape=note;whiteSpace=wrap;html=1;size=14;verticalAlign=top;align=left;spacingTop=-6;rounded=0;shadow=0;comic=0;labelBackgroundColor=none;strokeWidth=1;fontFamily=Verdana;fontSize=12" vertex="1" parent="1">
          <mxGeometry x="410" y="420" width="100" height="35" as="geometry" />
        </mxCell>
        <mxCell id="6_qPxMwIvEwHCs3QV3vg-42" value="Note" style="shape=note;whiteSpace=wrap;html=1;size=14;verticalAlign=top;align=left;spacingTop=-6;rounded=0;shadow=0;comic=0;labelBackgroundColor=none;strokeWidth=1;fontFamily=Verdana;fontSize=12" vertex="1" parent="1">
          <mxGeometry x="550" y="420" width="100" height="35" as="geometry" />
        </mxCell>
        <mxCell id="6_qPxMwIvEwHCs3QV3vg-43" value="Note" style="shape=note;whiteSpace=wrap;html=1;size=14;verticalAlign=top;align=left;spacingTop=-6;rounded=0;shadow=0;comic=0;labelBackgroundColor=none;strokeWidth=1;fontFamily=Verdana;fontSize=12" vertex="1" parent="1">
          <mxGeometry x="710" y="420" width="100" height="35" as="geometry" />
        </mxCell>
        <mxCell id="6_qPxMwIvEwHCs3QV3vg-44" value="Note" style="shape=note;whiteSpace=wrap;html=1;size=14;verticalAlign=top;align=left;spacingTop=-6;rounded=0;shadow=0;comic=0;labelBackgroundColor=none;strokeWidth=1;fontFamily=Verdana;fontSize=12" vertex="1" parent="1">
          <mxGeometry x="850" y="420" width="100" height="35" as="geometry" />
        </mxCell>
        <mxCell id="6_qPxMwIvEwHCs3QV3vg-45" value="Note" style="shape=note;whiteSpace=wrap;html=1;size=14;verticalAlign=top;align=left;spacingTop=-6;rounded=0;shadow=0;comic=0;labelBackgroundColor=none;strokeWidth=1;fontFamily=Verdana;fontSize=12" vertex="1" parent="1">
          <mxGeometry x="990" y="420" width="100" height="35" as="geometry" />
        </mxCell>
        <mxCell id="6_qPxMwIvEwHCs3QV3vg-46" value="Note" style="shape=note;whiteSpace=wrap;html=1;size=14;verticalAlign=top;align=left;spacingTop=-6;rounded=0;shadow=0;comic=0;labelBackgroundColor=none;strokeWidth=1;fontFamily=Verdana;fontSize=12" vertex="1" parent="1">
          <mxGeometry x="1130" y="420" width="100" height="35" as="geometry" />
        </mxCell>
        <mxCell id="6_qPxMwIvEwHCs3QV3vg-47" value="Note" style="shape=note;whiteSpace=wrap;html=1;size=14;verticalAlign=top;align=left;spacingTop=-6;rounded=0;shadow=0;comic=0;labelBackgroundColor=none;strokeWidth=1;fontFamily=Verdana;fontSize=12" vertex="1" parent="1">
          <mxGeometry x="1270" y="420" width="100" height="35" as="geometry" />
        </mxCell>
      </root>
    </mxGraphModel>
  </diagram>
</mxfile>
